<?xml version="1.0" standalone="no"?>
<!DOCTYPE svg PUBLIC "-//W3C//DTD SVG 20010904//EN"
 "http://www.w3.org/TR/2001/REC-SVG-20010904/DTD/svg10.dtd">
<svg version="1.0" xmlns="http://www.w3.org/2000/svg"
 width="260.000000pt" height="260.000000pt" viewBox="0 0 260.000000 260.000000"
 preserveAspectRatio="xMidYMid meet">
<metadata>
Created by potrace 1.14, written by Peter Selinger 2001-2017
</metadata>
<g transform="translate(0.000000,260.000000) scale(0.100000,-0.100000)"
fill="#000000" stroke="none">
<path d="M0 1300 l0 -1300 1300 0 1300 0 0 1300 0 1300 -1300 0 -1300 0 0
-1300z m1416 573 c-19 -408 -19 -416 -5 -407 8 4 112 70 232 146 214 135 217
137 231 115 42 -68 104 -182 101 -187 -2 -3 -109 -59 -239 -125 -130 -66 -236
-122 -236 -125 0 -3 106 -59 236 -125 129 -66 237 -123 239 -126 2 -3 -23 -51
-55 -107 l-60 -101 -217 137 c-120 76 -224 142 -232 146 -14 9 -14 1 5 -406
l6 -128 -122 0 -122 0 6 128 c19 407 19 415 5 406 -8 -4 -112 -70 -232 -146
-214 -135 -217 -137 -231 -115 -42 68 -104 182 -101 187 2 3 109 59 239 125
130 66 236 122 236 125 0 3 -106 59 -236 125 -129 66 -237 123 -239 126 -2 3
23 51 55 107 l60 101 217 -137 c120 -76 224 -142 232 -146 14 -9 14 -1 -5 407
l-6 127 122 0 122 0 -6 -127z"/>
</g>
</svg>
